PathFileType	4	(x/y/z)	A01_STANDINGCAL_T0011.trc
DataRate	CameraRate	NumFrames	NumMarkers	Units	OrigDataRate	OrigDataStartFrame	OrigNumFrames
240	240	10	48	mm	240	1	1200
Frame#	Time	TOP_HEAD			R_AC			L_AC			R_ASIS			L_ASIS			R_PSIS			L_PSIS			SACRAL			L_IC			R_IC			L_GT			R_GT			R_LAT_KNEE			R_MED_KNEE			L_MED_KNEE			L_LAT_KNEE			R_TOE			L_TOE			R_1ST_MET			L_1ST_MET			L_5TH_MET			R_5TH_MET			R_LAT_ANK			R_MED_ANK			L_MED_ANK			L_LAT_ANK			L_HEEL_SUP			R_HEEL_SUP			L_HEEL_LAT			R_HEEL_LAT			L_HEEL_MED			R_HEEL_MED			R_LL_PROX_POST			R_LL_PROX_ANT			R_LL_DIST_ANT			R_LL_DIST_POST			R_THIGH_PROX_POST			R_THIGH_PROX_ANT			R_THIGH_DIST_ANT			R_THIGH_DIST_POST			L_PROS_PROX_ANT			L_PROS_PROX_POST			L_PROS_DIST_POST			L_PROS_DIST_ANT			L_THIGH_PROX_ANT			L_THIGH_PROX_POST			L_THIGH_DIST_POST			L_THIGH_DIST_ANT			
		X1	Y1	Z1	X2	Y2	Z2	X3	Y3	Z3	X4	Y4	Z4	X5	Y5	Z5	X6	Y6	Z6	X7	Y7	Z7	X8	Y8	Z8	X9	Y9	Z9	X10	Y10	Z10	X11	Y11	Z11	X12	Y12	Z12	X13	Y13	Z13	X14	Y14	Z14	X15	Y15	Z15	X16	Y16	Z16	X17	Y17	Z17	X18	Y18	Z18	X19	Y19	Z19	X20	Y20	Z20	X21	Y21	Z21	X22	Y22	Z22	X23	Y23	Z23	X24	Y24	Z24	X25	Y25	Z25	X26	Y26	Z26	X27	Y27	Z27	X28	Y28	Z28	X29	Y29	Z29	X30	Y30	Z30	X31	Y31	Z31	X32	Y32	Z32	X33	Y33	Z33	X34	Y34	Z34	X35	Y35	Z35	X36	Y36	Z36	X37	Y37	Z37	X38	Y38	Z38	X39	Y39	Z39	X40	Y40	Z40	X41	Y41	Z41	X42	Y42	Z42	X43	Y43	Z43	X44	Y44	Z44	X45	Y45	Z45	X46	Y46	Z46	X47	Y47	Z47	X48	Y48	Z48	

1	0	582.28	1866	329.07	575.99	1593.6	495.73	592.58	1604.6	89.917	679.87	1094.2	491.22	710.68	1062.7	134.36	475.12	1100.3	344.35	493.31	1105.7	216.01	466.2	1075.2	275.83	667.01	1184.6	93.211	623.14	1196.6	501.26	646.51	972.77	86.29	606.14	985.28	519.45	549.04	581.16	471.44	595.07	568.62	346.97	605.03	558.14	306.4	592.53	575.92	149.08	774.46	72.765	452.96	776.87	85.549	172.58	698.03	57.731	395.18	696	57.153	225.22	670.05	50.812	95.029	651.51	45.948	523.41	526.2	110.98	476.33	565.27	117.47	378.73	565.43	126.86	209.17	540.27	123.01	141.62	453.94	73.19	173.47	448.82	69.059	408.47	466.12	45.899	142.21	452.24	45.302	443.11	472.45	44.835	206.22	463.26	43.027	381.99	516.91	399.42	501.97	452.56	404.54	467.62	472.58	324.05	469.92	524.39	324	492.77	549.26	862.4	496.75	617.91	875.96	516.24	615.27	784.73	510.83	549.3	772.96	491.29	637.77	493.01	158.03	583.65	493.45	144.55	577.68	430.17	147.77	630.03	437.69	159.72	687.95	822.41	128.7	621.33	834.42	104.92	622.68	759.17	120.17	684.06	749.22	141.27
2	0.0041701	582.29	1866	329.06	575.96	1593.6	495.75	592.58	1604.6	89.91	679.84	1094.2	491.19	710.67	1062.7	134.34	475.1	1100.2	344.38	493.27	1105.7	216.01	466.18	1075.2	275.83	667.13	1184.7	93.276	623.13	1196.7	501.27	646.48	972.75	86.294	606.15	985.33	519.48	549.02	581.17	471.44	595.07	568.62	346.95	605.03	558.16	306.39	592.54	575.94	149.04	774.5	72.769	452.96	776.86	85.548	172.59	698.02	57.729	395.2	695.99	57.158	225.23	670.05	50.807	95.039	651.5	45.954	523.44	526.23	110.96	476.31	565.28	117.47	378.74	565.42	126.82	209.14	540.26	123.03	141.62	453.93	73.225	173.44	448.77	69.085	408.45	466.12	45.877	142.28	452.23	45.299	443.13	472.45	44.837	206.22	463.21	43.061	381.99	516.88	399.4	501.98	452.54	404.54	467.63	472.56	323.98	469.88	524.32	324	492.71	549.22	862.41	496.74	617.89	875.96	516.21	615.22	784.68	510.75	549.28	772.96	491.32	637.78	492.99	158.01	583.68	493.5	144.52	577.64	430.26	147.77	630.01	437.67	159.74	687.94	822.41	128.68	621.33	834.44	104.93	622.67	759.17	120.19	684.05	749.22	141.24
3	0.0083403	582.29	1866	329.06	575.94	1593.6	495.77	592.57	1604.6	89.904	679.8	1094.2	491.16	710.66	1062.7	134.31	475.08	1100.2	344.4	493.23	1105.7	216.01	466.17	1075.2	275.83	667.25	1184.7	93.339	623.12	1196.7	501.27	646.44	972.73	86.297	606.16	985.38	519.5	549	581.18	471.44	595.06	568.63	346.94	605.04	558.17	306.38	592.55	575.97	149	774.53	72.772	452.96	776.86	85.547	172.59	698.02	57.727	395.21	695.98	57.162	225.25	670.06	50.802	95.048	651.5	45.961	523.46	526.26	110.95	476.3	565.28	117.47	378.76	565.42	126.79	209.11	540.25	123.05	141.61	453.92	73.26	173.41	448.71	69.11	408.43	466.12	45.856	142.34	452.21	45.295	443.15	472.44	44.84	206.23	463.17	43.093	381.99	516.85	399.39	501.99	452.53	404.55	467.64	472.54	323.92	469.84	524.26	324.01	492.65	549.19	862.41	496.73	617.86	875.96	516.18	615.16	784.64	510.68	549.26	772.96	491.35	637.79	492.98	157.98	583.71	493.55	144.48	577.61	430.34	147.78	629.99	437.64	159.77	687.93	822.41	128.66	621.33	834.45	104.93	622.67	759.17	120.21	684.04	749.22	141.21
4	0.01251	582.3	1866	329.05	575.91	1593.6	495.79	592.56	1604.7	89.898	679.77	1094.2	491.14	710.65	1062.7	134.29	475.06	1100.2	344.43	493.19	1105.8	216.02	466.15	1075.3	275.82	667.37	1184.8	93.399	623.11	1196.7	501.27	646.41	972.7	86.299	606.16	985.42	519.52	548.99	581.19	471.44	595.06	568.64	346.93	605.04	558.19	306.37	592.55	575.99	148.96	774.57	72.775	452.96	776.85	85.545	172.6	698.01	57.724	395.23	695.98	57.166	225.26	670.07	50.797	95.058	651.49	45.966	523.48	526.28	110.94	476.28	565.28	117.47	378.77	565.41	126.76	209.07	540.24	123.06	141.6	453.9	73.292	173.38	448.66	69.134	408.42	466.12	45.835	142.4	452.2	45.292	443.16	472.43	44.842	206.23	463.12	43.125	381.99	516.82	399.38	502	452.52	404.55	467.64	472.52	323.85	469.81	524.21	324.01	492.6	549.16	862.41	496.73	617.83	875.97	516.15	615.11	784.61	510.61	549.25	772.96	491.37	637.8	492.97	157.96	583.74	493.59	144.44	577.57	430.42	147.78	629.98	437.62	159.79	687.93	822.4	128.64	621.34	834.47	104.94	622.67	759.17	120.23	684.04	749.22	141.18
5	0.016681	582.31	1866	329.04	575.89	1593.6	495.81	592.55	1604.7	89.892	679.74	1094.2	491.11	710.64	1062.7	134.27	475.04	1100.1	344.45	493.15	1105.8	216.02	466.13	1075.3	275.82	667.47	1184.8	93.456	623.09	1196.7	501.27	646.38	972.68	86.3	606.16	985.46	519.54	548.97	581.2	471.43	595.05	568.65	346.91	605.04	558.2	306.36	592.56	576.01	148.93	774.6	72.778	452.97	776.84	85.544	172.6	698	57.722	395.24	695.97	57.17	225.27	670.07	50.793	95.067	651.49	45.972	523.5	526.31	110.93	476.26	565.29	117.47	378.78	565.4	126.73	209.04	540.23	123.08	141.59	453.89	73.322	173.36	448.62	69.157	408.4	466.12	45.816	142.46	452.19	45.288	443.18	472.42	44.844	206.23	463.08	43.155	382	516.79	399.36	502.01	452.51	404.55	467.65	472.5	323.79	469.77	524.15	324.02	492.56	549.12	862.41	496.72	617.81	875.97	516.12	615.06	784.57	510.54	549.23	772.96	491.4	637.8	492.96	157.93	583.77	493.63	144.4	577.54	430.49	147.78	629.96	437.6	159.82	687.92	822.4	128.62	621.34	834.48	104.94	622.66	759.17	120.24	684.03	749.22	141.15
6	0.020851	582.32	1866.1	329.04	575.86	1593.6	495.83	592.55	1604.7	89.887	679.71	1094.2	491.08	710.62	1062.7	134.25	475.02	1100.1	344.47	493.11	1105.8	216.02	466.11	1075.3	275.81	667.57	1184.9	93.507	623.08	1196.7	501.28	646.35	972.66	86.298	606.16	985.5	519.56	548.96	581.2	471.43	595.05	568.65	346.9	605.04	558.22	306.35	592.56	576.03	148.89	774.63	72.781	452.97	776.84	85.543	172.6	697.99	57.719	395.26	695.96	57.173	225.28	670.08	50.789	95.075	651.48	45.976	523.52	526.33	110.92	476.25	565.29	117.47	378.8	565.39	126.71	209.01	540.22	123.09	141.59	453.88	73.348	173.33	448.57	69.178	408.39	466.13	45.798	142.51	452.17	45.284	443.19	472.41	44.846	206.23	463.04	43.182	382	516.76	399.35	502.01	452.49	404.56	467.65	472.47	323.73	469.74	524.11	324.02	492.52	549.09	862.41	496.71	617.78	875.98	516.09	615.01	784.54	510.48	549.22	772.96	491.42	637.81	492.94	157.91	583.79	493.67	144.37	577.51	430.56	147.78	629.94	437.58	159.84	687.91	822.4	128.6	621.34	834.49	104.94	622.66	759.18	120.25	684.02	749.22	141.12
7	0.025021	582.32	1866.1	329.03	575.84	1593.6	495.84	592.54	1604.7	89.883	679.69	1094.2	491.06	710.61	1062.7	134.23	475	1100.1	344.48	493.07	1105.8	216.01	466.09	1075.3	275.8	667.66	1185	93.553	623.07	1196.7	501.28	646.32	972.64	86.295	606.16	985.53	519.57	548.94	581.21	471.43	595.05	568.66	346.88	605.05	558.23	306.34	592.56	576.05	148.86	774.65	72.782	452.97	776.83	85.541	172.61	697.99	57.716	395.27	695.96	57.175	225.29	670.08	50.785	95.083	651.48	45.979	523.53	526.34	110.91	476.24	565.29	117.47	378.81	565.38	126.68	208.99	540.21	123.1	141.58	453.86	73.371	173.31	448.53	69.197	408.38	466.13	45.781	142.55	452.16	45.28	443.2	472.41	44.847	206.23	463	43.207	382	516.73	399.34	502.02	452.48	404.56	467.66	472.46	323.68	469.71	524.06	324.03	492.5	549.06	862.41	496.7	617.76	875.98	516.06	614.97	784.52	510.43	549.2	772.95	491.43	637.81	492.94	157.88	583.81	493.7	144.34	577.48	430.63	147.77	629.93	437.57	159.85	687.9	822.4	128.58	621.33	834.5	104.94	622.65	759.18	120.26	684.02	749.22	141.1
8	0.029191	582.33	1866.1	329.02	575.82	1593.6	495.85	592.53	1604.7	89.879	679.66	1094.2	491.03	710.6	1062.7	134.21	474.98	1100.1	344.49	493.03	1105.8	216.01	466.08	1075.3	275.79	667.73	1185	93.592	623.06	1196.8	501.27	646.3	972.63	86.29	606.16	985.56	519.57	548.92	581.21	471.42	595.05	568.66	346.87	605.05	558.24	306.33	592.56	576.06	148.82	774.67	72.784	452.97	776.83	85.54	172.61	697.98	57.713	395.28	695.95	57.176	225.3	670.09	50.782	95.09	651.47	45.982	523.55	526.36	110.9	476.23	565.29	117.47	378.82	565.37	126.66	208.97	540.2	123.11	141.58	453.86	73.391	173.3	448.49	69.213	408.37	466.13	45.766	142.59	452.15	45.275	443.21	472.4	44.848	206.24	462.97	43.228	382	516.71	399.33	502.02	452.47	404.56	467.66	472.44	323.64	469.68	524.02	324.04	492.48	549.03	862.41	496.69	617.74	875.98	516.03	614.93	784.49	510.38	549.19	772.95	491.45	637.81	492.93	157.86	583.83	493.73	144.31	577.45	430.68	147.77	629.91	437.55	159.87	687.89	822.4	128.56	621.33	834.51	104.94	622.64	759.18	120.27	684.01	749.22	141.07
9	0.033361	582.34	1866.1	329.01	575.8	1593.6	495.87	592.52	1604.8	89.876	679.63	1094.2	491.01	710.59	1062.7	134.19	474.97	1100.1	344.49	493	1105.8	216	466.06	1075.3	275.78	667.8	1185	93.626	623.04	1196.8	501.27	646.27	972.62	86.283	606.15	985.58	519.58	548.91	581.22	471.42	595.05	568.66	346.86	605.05	558.25	306.31	592.56	576.08	148.79	774.69	72.785	452.97	776.82	85.538	172.61	697.98	57.71	395.29	695.95	57.177	225.31	670.09	50.78	95.095	651.47	45.984	523.56	526.37	110.89	476.22	565.3	117.47	378.83	565.37	126.65	208.95	540.2	123.12	141.57	453.85	73.407	173.28	448.46	69.227	408.36	466.13	45.752	142.63	452.14	45.272	443.22	472.39	44.848	206.24	462.94	43.247	382	516.68	399.32	502.02	452.46	404.56	467.66	472.42	323.6	469.66	523.99	324.05	492.47	549.01	862.41	496.68	617.72	875.99	516	614.89	784.48	510.33	549.17	772.95	491.45	637.81	492.92	157.84	583.84	493.76	144.28	577.43	430.73	147.76	629.9	437.53	159.88	687.88	822.4	128.54	621.33	834.52	104.93	622.64	759.18	120.27	684	749.22	141.05
10	0.037531	582.34	1866.1	329	575.78	1593.5	495.88	592.51	1604.8	89.873	679.61	1094.2	490.99	710.58	1062.7	134.18	474.95	1100	344.5	492.97	1105.8	215.99	466.04	1075.3	275.77	667.85	1185.1	93.653	623.03	1196.8	501.27	646.25	972.61	86.275	606.14	985.6	519.57	548.9	581.22	471.41	595.05	568.67	346.84	605.05	558.26	306.3	592.56	576.09	148.76	774.71	72.786	452.97	776.82	85.537	172.62	697.97	57.707	395.3	695.94	57.178	225.31	670.09	50.778	95.1	651.46	45.985	523.57	526.38	110.88	476.21	565.3	117.47	378.83	565.36	126.63	208.93	540.19	123.13	141.57	453.84	73.42	173.27	448.43	69.239	408.35	466.12	45.74	142.66	452.13	45.268	443.23	472.38	44.849	206.24	462.91	43.263	382	516.66	399.31	502.02	452.45	404.56	467.66	472.41	323.57	469.63	523.96	324.06	492.47	548.98	862.41	496.67	617.7	875.99	515.98	614.86	784.46	510.29	549.16	772.95	491.46	637.81	492.92	157.82	583.85	493.78	144.25	577.41	430.77	147.75	629.89	437.52	159.89	687.87	822.4	128.53	621.32	834.53	104.92	622.63	759.18	120.27	684	749.23	141.02
